<?xml version="1.0" encoding="utf-8"?>
<!-- Generator: Adobe Illustrator 23.0.1, SVG Export Plug-In . SVG Version: 6.00 Build 0)  -->
<svg version="1.1" id="Ebene_1" xmlns="http://www.w3.org/2000/svg" x="0px" y="0px"
     viewBox="0 0 126.23 58.32" style="enable-background:new 0 0 126.23 58.32;" xml:space="preserve">
<style type="text/css">
	.st0{fill:#C41230;}
	.st1{fill:none;stroke:#C41230;stroke-width:0.458;}
	.st2{fill:none;stroke:#000000;stroke-width:0.458;stroke-linecap:round;stroke-miterlimit:3.864;}
	.st3{fill:#FFFFFF;}
	.st4{fill:none;stroke:#FFFFFF;stroke-width:0.763;}
</style>
    <polygon class="st0" points="70.76,0.23 126,55.37 126,0.23 "/>
    <g>
	<polygon class="st1" points="70.76,0.23 126,55.37 126,0.23 	"/>
</g>
    <polygon points="13.95,35.46 14.04,35.46 20.47,15.63 26.83,15.63 32.86,35.46 32.94,35.46 38.72,15.63 47.03,15.63 37.21,46.33
	29.07,46.33 23.69,28.54 23.61,28.54 17.58,46.33 9.47,46.33 0.31,15.63 8.62,15.63 "/>
    <g>
	<polygon class="st2" points="13.95,35.46 14.04,35.46 20.47,15.63 26.83,15.63 32.86,35.46 32.94,35.46 38.72,15.63 47.03,15.63 
		37.21,46.33 29.07,46.33 23.69,28.54 23.61,28.54 17.58,46.33 9.47,46.33 0.31,15.63 8.62,15.63 	"/>
</g>
    <rect x="50.58" y="15.63" width="7.89" height="30.7"/>
    <rect x="50.58" y="15.63" class="st2" width="7.89" height="30.7"/>
    <g>
	<path d="M82.05,23.53c-1.46-1.22-3.33-2.04-5.28-2.04c-1.46,0-3.41,0.85-3.41,2.57c0,1.79,2.15,2.48,3.53,2.93l2.03,0.61
		c4.27,1.26,7.56,3.42,7.56,8.39c0,3.05-0.73,6.19-3.17,8.27c-2.4,2.04-5.61,2.89-8.69,2.89c-3.86,0-7.64-1.3-10.77-3.5l3.41-6.44
		c1.99,1.75,4.35,3.18,7.07,3.18c1.87,0,3.86-0.94,3.86-3.1c0-2.24-3.13-3.01-4.83-3.5c-5-1.42-8.29-2.73-8.29-8.67
		c0-6.23,4.43-10.3,10.56-10.3c3.09,0,6.87,0.98,9.59,2.52L82.05,23.53z"/>
        <path class="st2" d="M82.05,23.53c-1.46-1.22-3.33-2.04-5.28-2.04c-1.46,0-3.41,0.85-3.41,2.57c0,1.79,2.15,2.48,3.53,2.93
		l2.03,0.61c4.27,1.26,7.56,3.42,7.56,8.39c0,3.05-0.73,6.19-3.17,8.27c-2.4,2.04-5.61,2.89-8.69,2.89c-3.86,0-7.64-1.3-10.77-3.5
		l3.41-6.44c1.99,1.75,4.35,3.18,7.07,3.18c1.87,0,3.86-0.94,3.86-3.1c0-2.24-3.13-3.01-4.83-3.5c-5-1.42-8.29-2.73-8.29-8.67
		c0-6.23,4.43-10.3,10.56-10.3c3.09,0,6.87,0.98,9.59,2.52L82.05,23.53z"/>
        <path class="st0" d="M91.65,25.19c0,5.93,3.29,7.23,8.28,8.65c1.71,0.49,4.83,1.26,4.83,3.49c0,2.15-1.99,3.09-3.86,3.09
		c-2.72,0-5.07-1.42-7.06-3.17l-3.41,6.42c3.12,2.19,6.9,3.49,10.75,3.49c3.09,0,6.29-0.85,8.69-2.88c0.96-0.82,1.65-1.81,2.14-2.89
		l-19.79-19.8C91.86,22.68,91.65,23.88,91.65,25.19"/>
        <path class="st1" d="M91.65,25.19c0,5.93,3.29,7.23,8.28,8.65c1.71,0.49,4.83,1.26,4.83,3.49c0,2.15-1.99,3.09-3.86,3.09
		c-2.72,0-5.07-1.42-7.06-3.17l-3.41,6.42c3.12,2.19,6.9,3.49,10.75,3.49c3.09,0,6.29-0.85,8.69-2.88c0.96-0.82,1.65-1.81,2.14-2.89
		l-19.79-19.8C91.86,22.68,91.65,23.88,91.65,25.19z"/>
        <path class="st3" d="M105.5,27.55l-2.02-0.61c-1.37-0.45-3.52-1.13-3.52-2.91c0-1.7,1.94-2.55,3.4-2.55c1.94,0,3.8,0.81,5.26,2.02
		l3.15-6.15c-2.71-1.54-6.47-2.51-9.54-2.51c-4.82,0-8.57,2.53-9.94,6.64L112,41.22c0.75-1.64,1.02-3.5,1.02-5.33
		C113.02,30.95,109.74,28.81,105.5,27.55"/>
        <path class="st4" d="M105.5,27.55l-2.02-0.61c-1.37-0.45-3.52-1.13-3.52-2.91c0-1.7,1.94-2.55,3.4-2.55c1.94,0,3.8,0.81,5.26,2.02
		l3.15-6.15c-2.71-1.54-6.47-2.51-9.54-2.51c-4.82,0-8.57,2.53-9.94,6.64L112,41.22c0.75-1.64,1.02-3.5,1.02-5.33
		C113.02,30.95,109.74,28.81,105.5,27.55z"/>
</g>
    <polygon points="2.43,52.71 2.95,56.46 2.98,56.87 2.99,56.87 3.21,55.02 3.6,52.71 4.17,52.71 4.77,56.84 4.78,56.84 4.98,55.06
	5.32,52.71 6.03,52.71 5.06,58.25 4.48,58.25 4.06,55.67 3.89,54.28 3.88,54.14 3.87,54.14 3.7,55.63 3.65,55.94 3.27,58.25 
	2.66,58.25 1.71,52.71 "/>
    <rect x="6.88" y="52.71" width="0.74" height="5.53"/>
    <g>
	<path d="M10.37,54.29c0-0.53-0.07-0.97-0.62-0.95H9.63v1.83C10.18,55.2,10.37,54.85,10.37,54.29 M8.9,52.71h0.88
		c0.54,0,1.37,0.03,1.37,1.42c0,0.52-0.15,1.31-0.76,1.42l1.02,2.69h-0.76l-1-2.71H9.63v2.71H8.9V52.71z"/>
</g>
    <polygon points="14.16,52.71 14.16,53.35 13.33,53.35 13.33,58.25 12.59,58.25 12.59,53.35 11.73,53.35 11.73,52.71 "/>
    <g>
	<path d="M16.67,53.56c-0.19-0.14-0.38-0.23-0.62-0.23c-0.4,0-0.65,0.33-0.65,0.71c0,0.24,0.06,0.41,0.21,0.6l0.56,0.61
		c0.5,0.51,0.78,0.88,0.78,1.62c0,0.78-0.48,1.45-1.3,1.45c-0.29,0-0.58-0.08-0.81-0.27v-0.74c0.22,0.16,0.44,0.29,0.73,0.29
		c0.45,0,0.65-0.36,0.65-0.77c0-1.1-1.55-1.32-1.55-2.78c0-0.78,0.41-1.42,1.24-1.42c0.28,0,0.54,0.04,0.78,0.18L16.67,53.56z"/>
        <path d="M20.1,53.47c-0.15-0.07-0.3-0.14-0.47-0.14c-1.03,0-1.03,1.5-1.03,2.19c0,0.73,0.06,2.11,1.06,2.11
		c0.16,0,0.3-0.04,0.44-0.11v0.65c-0.18,0.12-0.37,0.15-0.59,0.15c-1.5,0-1.7-1.59-1.7-2.75c0-1.11,0.14-2.93,1.64-2.93
		c0.25,0,0.43,0.04,0.64,0.16V53.47z"/>
</g>
    <polygon points="21.78,52.71 21.78,54.87 22.89,54.87 22.89,52.71 23.63,52.71 23.63,58.25 22.89,58.25 22.89,55.51 21.78,55.51
	21.78,58.25 21.05,58.25 21.05,52.71 "/>
    <path d="M26.26,55.8l-0.28-2.01h-0.01l-0.44,2.81h0.88L26.26,55.8z M26.28,52.71l1.19,5.53h-0.74l-0.21-1.08h-1.1l-0.2,1.08h-0.72
	l1.2-5.53H26.28z"/>
    <polygon points="30.33,52.71 30.33,53.35 29.07,53.35 29.07,55.09 30.2,55.09 30.2,55.73 29.07,55.73 29.07,58.25 28.34,58.25
	28.34,52.71 "/>
    <polygon points="33.19,52.71 33.19,53.35 32.36,53.35 32.36,58.25 31.63,58.25 31.63,53.35 30.76,53.35 30.76,52.71 "/>
    <g>
	<path d="M35.7,53.56c-0.19-0.14-0.37-0.23-0.62-0.23c-0.4,0-0.65,0.33-0.65,0.71c0,0.24,0.06,0.41,0.21,0.6l0.56,0.61
		c0.5,0.51,0.79,0.88,0.79,1.62c0,0.78-0.48,1.45-1.3,1.45c-0.29,0-0.58-0.08-0.81-0.27v-0.74c0.22,0.16,0.44,0.29,0.73,0.29
		c0.46,0,0.65-0.36,0.65-0.77c0-1.1-1.55-1.32-1.55-2.78c0-0.78,0.41-1.42,1.24-1.42c0.28,0,0.54,0.04,0.78,0.18L35.7,53.56z"/>
</g>
    <rect x="36.99" y="52.71" width="0.74" height="5.53"/>
    <polygon points="39.63,54.36 39.74,56.21 39.74,58.25 39,58.25 39,52.71 39.71,52.71 41,56.92 41.02,56.9 40.84,54.69 40.84,52.71
	41.57,52.71 41.57,58.25 40.89,58.25 39.6,53.98 39.58,54 "/>
    <polygon points="44.85,52.71 44.85,53.35 43.59,53.35 43.59,55.09 44.72,55.09 44.72,55.73 43.59,55.73 43.59,58.25 42.86,58.25
	42.86,52.71 "/>
    <g>
	<path d="M46.4,55.48c0,1.18,0.08,2.15,0.66,2.15c0.58,0,0.66-0.97,0.66-2.15c0-1.17-0.08-2.15-0.66-2.15
		C46.48,53.33,46.4,54.31,46.4,55.48 M48.49,55.48c0,1-0.01,2.84-1.44,2.84c-1.42,0-1.44-1.84-1.44-2.84c0-1,0.02-2.84,1.44-2.84
		C48.48,52.64,48.49,54.48,48.49,55.48"/>
        <path d="M51.12,54.29c0-0.53-0.07-0.97-0.62-0.95h-0.12v1.83C50.92,55.2,51.12,54.85,51.12,54.29 M49.64,52.71h0.88
		c0.54,0,1.37,0.03,1.37,1.42c0,0.52-0.15,1.31-0.76,1.42l1.02,2.69h-0.76l-1-2.71h-0.02v2.71h-0.73V52.71z"/>
</g>
    <polygon points="53.9,52.71 54.68,56.71 54.7,56.71 54.72,56.48 54.94,55.15 55.42,52.71 56.06,52.71 56.58,58.25 55.86,58.25
	55.72,56.18 55.68,55.16 55.67,54.43 55.65,54.43 55.53,55.22 54.95,58.25 54.45,58.25 53.74,54.43 53.72,54.43 53.51,58.25 
	52.81,58.25 53.27,52.71 "/>
    <path d="M58.94,55.8l-0.28-2.01h-0.01l-0.44,2.81h0.88L58.94,55.8z M58.95,52.71l1.19,5.53H59.4l-0.21-1.08h-1.1l-0.21,1.08h-0.72
	l1.2-5.53H58.95z"/>
    <polygon points="62.7,52.71 62.7,53.35 61.87,53.35 61.87,58.25 61.13,58.25 61.13,53.35 60.27,53.35 60.27,52.71 "/>
    <rect x="63.51" y="52.71" width="0.73" height="5.53"/>
    <polygon points="66.26,52.71 66.27,55.39 66.29,55.39 67.31,52.71 68.07,52.71 66.98,55.39 68.15,58.25 67.31,58.25 66.27,55.39
	66.26,55.39 66.26,58.25 65.53,58.25 65.53,52.71 "/>
    <g>
	<path d="M70.73,53.56c-0.19-0.14-0.38-0.23-0.62-0.23c-0.4,0-0.65,0.33-0.65,0.71c0,0.24,0.06,0.41,0.2,0.6l0.56,0.61
		c0.5,0.51,0.79,0.88,0.79,1.62c0,0.78-0.48,1.45-1.3,1.45c-0.29,0-0.58-0.08-0.81-0.27v-0.74c0.22,0.16,0.44,0.29,0.73,0.29
		c0.45,0,0.65-0.36,0.65-0.77c0-1.1-1.55-1.32-1.55-2.78c0-0.78,0.41-1.42,1.24-1.42c0.28,0,0.54,0.04,0.78,0.18L70.73,53.56z"/>
        <path d="M74.16,53.47c-0.15-0.07-0.3-0.14-0.47-0.14c-1.03,0-1.04,1.5-1.04,2.19c0,0.73,0.06,2.11,1.07,2.11
		c0.16,0,0.3-0.04,0.44-0.11v0.65c-0.19,0.12-0.38,0.15-0.59,0.15c-1.5,0-1.69-1.59-1.69-2.75c0-1.11,0.14-2.93,1.64-2.93
		c0.25,0,0.42,0.04,0.64,0.16V53.47z"/>
</g>
    <polygon points="75.85,52.71 75.85,54.87 76.95,54.87 76.95,52.71 77.69,52.71 77.69,58.25 76.95,58.25 76.95,55.51 75.85,55.51
	75.85,58.25 75.11,58.25 75.11,52.71 "/>
    <g>
	<path d="M79.71,52.71v4.06c0,0.71,0.21,0.86,0.51,0.86c0.51,0,0.55-0.32,0.56-0.78v-4.14h0.73v3.93c0,0.73,0.01,1.68-1.27,1.68
		c-1.17,0-1.27-0.79-1.27-1.79v-3.82H79.71z"/>
</g>
    <polygon points="83.52,52.71 83.52,57.61 84.76,57.61 84.76,58.25 82.79,58.25 82.79,52.71 "/>
    <polygon points="87.58,52.71 87.58,53.35 86.34,53.35 86.34,55.09 87.45,55.09 87.45,55.73 86.34,55.73 86.34,57.61 87.58,57.61
	87.58,58.25 85.61,58.25 85.61,52.71 "/>
    <g>
	<path d="M92.14,53.56c-0.19-0.14-0.38-0.23-0.62-0.23c-0.4,0-0.65,0.33-0.65,0.71c0,0.24,0.06,0.41,0.21,0.6l0.56,0.61
		c0.5,0.51,0.79,0.88,0.79,1.62c0,0.78-0.48,1.45-1.3,1.45c-0.29,0-0.58-0.08-0.81-0.27v-0.74c0.22,0.16,0.44,0.29,0.73,0.29
		c0.46,0,0.65-0.36,0.65-0.77c0-1.1-1.55-1.32-1.55-2.78c0-0.78,0.41-1.42,1.24-1.42c0.28,0,0.54,0.04,0.78,0.18L92.14,53.56z"/>
        <path d="M95.57,53.47c-0.15-0.07-0.3-0.14-0.47-0.14c-1.03,0-1.04,1.5-1.04,2.19c0,0.73,0.06,2.11,1.06,2.11
		c0.16,0,0.3-0.04,0.44-0.11v0.65c-0.19,0.12-0.38,0.15-0.59,0.15c-1.5,0-1.7-1.59-1.7-2.75c0-1.11,0.14-2.93,1.64-2.93
		c0.25,0,0.43,0.04,0.64,0.16V53.47z"/>
</g>
    <polygon points="97.26,52.71 97.26,54.87 98.36,54.87 98.36,52.71 99.1,52.71 99.1,58.25 98.36,58.25 98.36,55.51 97.26,55.51
	97.26,58.25 96.52,58.25 96.52,52.71 "/>
    <polygon points="100.67,52.71 101.19,56.46 101.22,56.87 101.24,56.87 101.46,55.02 101.84,52.71 102.41,52.71 103.01,56.84
	103.03,56.84 103.23,55.06 103.56,52.71 104.27,52.71 103.3,58.25 102.72,58.25 102.3,55.67 102.13,54.28 102.12,54.14 
	102.11,54.14 101.95,55.63 101.9,55.94 101.51,58.25 100.91,58.25 99.95,52.71 "/>
    <polygon points="107.09,52.71 107.09,53.35 105.85,53.35 105.85,55.09 106.96,55.09 106.96,55.73 105.85,55.73 105.85,57.61
	107.09,57.61 107.09,58.25 105.12,58.25 105.12,52.71 "/>
    <rect x="108.05" y="52.71" width="0.73" height="5.53"/>
    <polygon
            points="112.38,52.71 110.71,57.61 112.29,57.61 112.29,58.25 109.74,58.25 111.42,53.35 109.93,53.35 109.93,52.71 "/>
    <g>
</g>
    <g>
</g>
    <g>
</g>
    <g>
</g>
    <g>
</g>
    <g>
</g>
</svg>
